<?xml version="1.0" encoding="UTF-8" standalone="no"?>
<svg
   xmlns:dc="http://purl.org/dc/elements/1.1/"
   xmlns:cc="http://creativecommons.org/ns#"
   xmlns:rdf="http://www.w3.org/1999/02/22-rdf-syntax-ns#"
   xmlns:svg="http://www.w3.org/2000/svg"
   xmlns="http://www.w3.org/2000/svg"
   id="svg8"
   version="1.1"
   viewBox="0 0 49.630856 91.962685"
   height="91.962685mm"
   width="49.630856mm">
  <defs
     id="defs2" />
  <metadata
     id="metadata5">
    <rdf:RDF>
      <cc:Work
         rdf:about="">
        <dc:format>image/svg+xml</dc:format>
        <dc:type
           rdf:resource="http://purl.org/dc/dcmitype/StillImage" />
        <dc:title></dc:title>
      </cc:Work>
    </rdf:RDF>
  </metadata>
  <g
     transform="translate(-92.321629,-62.504654)"
     id="layer1">
    <path
       id="path819"
       d="m 93.220635,154.37624 c 0,0 -2.710415,-7.38777 15.042085,-23.92861 17.75249,-16.54085 10.86389,-45.837905 10.86389,-45.837905"
       style="opacity:1;vector-effect:none;fill:none;fill-opacity:1;stroke:#96d021;stroke-width:0.52899998;stroke-linecap:butt;stroke-linejoin:miter;stroke-miterlimit:4;stroke-dasharray:none;stroke-dashoffset:0;stroke-opacity:1" />
    <path
       id="path829"
       d="m 103.81813,135.43255 c 0,0 -9.488325,-6.50671 -7.854522,-16.98024 1.633798,-10.47352 -3.14247,-18.570917 -3.14247,-18.570917 0,0 13.702492,1.634927 13.155462,14.475867 -0.45338,10.64277 -3.5296,11.68373 -2.15847,21.07529 z"
       style="opacity:1;vector-effect:none;fill:none;fill-opacity:1;stroke:#65900f;stroke-width:0.5291667;stroke-linecap:butt;stroke-linejoin:miter;stroke-miterlimit:4;stroke-dasharray:none;stroke-dashoffset:0;stroke-opacity:1" />
    <path
       id="path833"
       d="m 128.32415,108.8108 c 6.0763,-0.43659 13.00723,-6.16327 13.00723,-6.16327 0,0 -0.55734,11.52732 -12.76616,11.70362 -7.59422,0.10964 -11.40709,3.07651 -11.40709,3.07651 0,0 0.2242,-7.83067 11.16602,-8.61686 z"
       style="opacity:1;vector-effect:none;fill:none;fill-opacity:1;stroke:#589205;stroke-width:0.5291667;stroke-linecap:butt;stroke-linejoin:miter;stroke-miterlimit:4;stroke-dasharray:none;stroke-dashoffset:0;stroke-opacity:1" />
    <path
       id="path835"
       d="m 119.12661,84.609725 c 0,0 8.72126,-19.777201 -1.74319,-21.70968 -10.46445,-1.932477 -2.62051,18.121529 1.74319,21.70968 4.3637,3.588148 27.68298,-2.339721 21.53624,-8.625258 -6.14676,-6.285535 -15.20362,5.242701 -21.53624,8.625258 -6.33263,3.382558 -16.37807,11.268522 -9.83276,14.277677 6.54531,3.009148 -1.83476,-1.824743 9.83276,-14.277677 11.66751,-12.452933 19.59335,-21.419783 11.70642,-21.599758 -7.88693,-0.179976 -11.67654,15.095841 -11.70642,21.599758 -0.0299,6.503918 -2.07458,16.725795 7.19937,12.583199 9.27394,-4.142597 -0.86934,-8.013645 -7.19937,-12.583199 -6.33004,-4.569553 -22.436305,-11.695983 -20.627033,-2.37339 1.809273,9.322589 14.391163,3.332225 20.627033,2.37339 6.23587,-0.958836 20.26143,-4.060114 16.73826,1.692288 -3.52317,5.7524 -13.65574,3.496028 -16.73826,-1.692288 -3.08252,-5.188319 -6.36119,-19.279058 -12.32988,-13.720586 -5.9687,5.558475 10.33583,8.889074 12.32988,13.720586 1.99405,4.831511 1.15641,18.617735 -3.91529,14.337989 -5.0717,-4.279755 1.34095,-14.608005 4.47464,-17.382699 3.13369,-2.774701 -0.55935,3.04471 -0.55935,3.04471 z"
       style="opacity:1;vector-effect:none;fill:#fff800;fill-opacity:1;stroke:#429800;stroke-width:0.5291667;stroke-linecap:butt;stroke-linejoin:miter;stroke-miterlimit:4;stroke-dasharray:none;stroke-dashoffset:0;stroke-opacity:1" />
    <path
       id="path839"
       d="m 103.81813,135.43255 c 0,0 -5.544322,-5.30904 -4.504888,-14.00249 1.039438,-8.69346 0.05597,-17.58394 -6.492105,-21.548668"
       style="opacity:1;vector-effect:none;fill:none;fill-opacity:1;stroke:#447400;stroke-width:0.5291667;stroke-linecap:butt;stroke-linejoin:miter;stroke-miterlimit:4;stroke-dasharray:none;stroke-dashoffset:0;stroke-opacity:1" />
    <path
       id="path841"
       d="m 117.15813,117.42766 c 0,0 2.84931,-5.06903 10.03086,-5.91948 7.18154,-0.85044 13.54371,-6.19303 14.14239,-8.86065"
       style="opacity:1;vector-effect:none;fill:none;fill-opacity:1;stroke:#3a6300;stroke-width:0.5291667;stroke-linecap:butt;stroke-linejoin:miter;stroke-miterlimit:4;stroke-dasharray:none;stroke-dashoffset:0;stroke-opacity:1" />
  </g>
</svg>
